<svg xmlns="http://www.w3.org/2000/svg" viewBox="0 0 80 80" width="80">
  <g transform="scale(15) translate(-2.2, -16.5)" fill="#766" stroke="#fff" stroke-width="0.05">
    <path d="M 3.56, 20.04 L 2.55, 20.78 L 2.93, 19.59 L 3.94, 18.85 L 3.56, 20.04 z"/>
    <path d="M 5.82, 16.93 L 6.21, 18.12 L 5.19, 18.85 L 4.81, 17.66 L 5.82, 16.93 z"/>
    <path d="M 3.56, 17.66 L 4.81, 17.66 L 5.19, 18.85 L 3.94, 18.85 L 3.56, 17.66 z"/>
    <path d="M 3.56, 17.66 L 3.94, 18.85 L 2.93, 19.59 L 2.55, 18.40 L 3.56, 17.66 z"/>
    <path d="M 4.57, 16.93 L 5.82, 16.93 L 4.81, 17.66 L 3.56, 17.66 L 4.57, 16.93 z"/>
    <path d="M 4.57, 20.78 L 3.56, 20.04 L 3.94, 18.85 L 4.96, 19.59 L 4.57, 20.78 z"/>
    <path d="M 7.22, 18.85 L 6.21, 19.59 L 5.19, 18.85 L 6.21, 18.12 L 7.22, 18.85 z"/>
    <path d="M 4.96, 19.59 L 6.21, 19.59 L 5.19, 18.85 L 3.94, 18.85 L 4.96, 19.59 z"/>
    <path d="M 4.57, 20.78 L 3.56, 21.51 L 2.55, 20.78 L 3.56, 20.04 L 4.57, 20.78 z"/>
  </g>
</svg>